<svg width="229" height="66" viewBox="0 0 229 66" fill="none" xmlns="http://www.w3.org/2000/svg">
<path d="M18.0978 1.39777H18.7942C21.4346 1.39777 23.6818 4.42486 25.5361 10.479C29.2488 18.9815 32.577 25.9661 35.5206 31.4371V33.3151C35.5206 35.296 33.9698 36.6938 30.868 37.5042C28.0824 37.5042 25.9163 35.0945 24.3654 30.2795C15.402 31.1713 10.9202 31.8702 10.9202 32.3761C9.09164 37.1955 7.15198 39.6009 5.11405 39.6009H3.9605C1.32017 38.8291 0 37.5042 0 35.6305V34.4728C0 33.6882 2.55062 27.7841 7.65612 16.769C11.4885 8.31806 13.8084 3.73884 14.6201 3.03566C15.8121 1.94231 16.9742 1.39777 18.0978 1.39777ZM5.10978 32.136C5.10978 32.4276 4.87907 33.2894 4.41338 34.7129L4.87052 34.9316H5.34903C5.34903 34.7858 5.57974 33.8554 6.04543 32.136H5.10978ZM7.65612 26.5449C7.51086 27.0509 7.12634 27.9084 6.50257 29.1218L7.19897 29.5806H7.43823C7.43823 29.3533 7.82274 28.4229 8.59177 26.7893L7.65612 26.5449ZM9.28817 23.7537H9.98457C10.6083 22.6774 10.9202 21.9014 10.9202 21.4383V21.1982H10.4417C9.67269 21.8628 9.28817 22.7118 9.28817 23.7537ZM12.3087 15.6071C11.8431 16.9363 11.6124 17.871 11.6124 18.4026C11.7704 18.4026 12.0054 18.4841 12.3087 18.6428C12.3087 18.3641 12.6121 17.4336 13.223 15.8472L12.7659 15.6071H12.3087ZM13.2273 27.0251C13.3854 27.3167 13.4666 27.5525 13.4666 27.724C13.7571 27.724 14.6842 27.5654 16.2522 27.2438V26.3263C15.9189 26.3263 14.9106 26.5621 13.2273 27.0251ZM14.6201 9.78016C13.8511 11.4438 13.4666 12.4557 13.4666 12.8158H14.4022C15.0132 11.2208 15.3165 10.3676 15.3165 10.2604L14.6201 9.78016ZM17.8799 16.7648L15.7907 21.6527H16.0086C18.3285 21.3483 19.7213 21.1939 20.187 21.1939C18.9523 18.244 18.1833 16.7648 17.8799 16.7648ZM17.1835 7.44338V8.14227C18.4183 8.34379 19.0335 8.73397 19.0335 9.32138H19.9691V9.08127C19.7812 8.37809 19.089 7.75638 17.8799 7.22471C17.5766 7.37049 17.3416 7.44338 17.1835 7.44338ZM19.2727 25.846V26.5449C21.127 26.159 22.0583 25.8546 22.0583 25.6274C22.0583 25.3058 21.8276 25.1471 21.3619 25.1471C19.9691 25.2415 19.2727 25.4773 19.2727 25.846ZM20.6655 12.1169C21.2637 13.5276 21.7977 14.3808 22.2762 14.6724C22.5796 14.5266 22.8146 14.4537 22.9726 14.4537C22.1224 12.8844 21.5884 12.0269 21.3619 11.8768C21.0543 12.0355 20.8236 12.1169 20.6655 12.1169ZM23.669 17.4636C24.5961 19.0887 25.0618 19.9462 25.0618 20.0405C25.3652 19.8819 25.6001 19.8004 25.7582 19.8004C25.7582 19.1487 25.2925 18.2183 24.3654 17.0049C23.8997 17.1635 23.669 17.3179 23.669 17.4636ZM26.4504 22.8361L27.6253 25.3915C27.9158 25.2329 28.1465 25.1514 28.3217 25.1514C28.3217 24.6841 27.9286 23.7537 27.1468 22.3559C26.6853 22.5145 26.4504 22.6732 26.4504 22.8361ZM28.7788 28.1828C29.5478 29.6192 29.9323 30.4724 29.9323 30.7383H30.868C30.868 29.9536 30.4023 29.0189 29.4752 27.9427C29.1847 28.1013 28.9497 28.1828 28.7788 28.1828Z" fill="#294E9E"/>
<path d="M50.4185 1.15767C57.4038 1.15767 62.2786 4.57922 65.0386 11.418C65.3547 12.5886 65.5171 13.6734 65.5171 14.6724C65.5171 20.8595 61.7232 25.2115 54.1397 27.724C52.6017 28.0327 51.2089 28.1828 49.9613 28.1828H46.9365C47.0945 31.0427 47.1757 32.8264 47.1757 33.5338C47.1757 35.2103 46.4024 36.8396 44.8473 38.4218C43.7065 39.0478 42.7794 39.3608 42.0617 39.3608C39.4512 39.3608 37.9046 37.8129 37.4261 34.7086C37.4261 33.9626 37.5073 33.1865 37.6654 32.3719C37.1997 27.5268 36.8109 21.8585 36.4905 15.367C36.4905 8.32664 38.5797 4.05613 42.7538 2.55116C45.5437 1.62502 48.0986 1.15767 50.4185 1.15767ZM41.8438 13.5147V13.7548C41.6857 15.1269 41.6045 15.9758 41.6045 16.3103H42.5402V16.0702C42.6854 14.7024 42.7581 13.8492 42.7581 13.5147H41.8438ZM41.6088 19.5603V22.3559H42.3052V19.5603H41.6088ZM41.8438 25.3873V28.4229H42.7581V25.3873H41.8438ZM41.8438 31.9174L42.0617 34.2327H42.9973L42.7581 31.4371H42.3009C41.9976 31.4886 41.8438 31.6515 41.8438 31.9174ZM44.1509 7.9236C43.1682 9.11986 42.553 9.9731 42.3009 10.479L42.7581 10.7192H42.9973C43.1682 10.7063 43.7877 9.92594 44.8473 8.38238L44.1509 7.9236ZM46.0222 18.1625C46.0222 18.6299 47.2569 18.8614 49.7221 18.8614C52.5205 18.8614 54.6097 17.7767 55.9854 15.6071V14.4494C55.9854 12.5886 54.4388 11.3409 51.3498 10.7192H49.0214C47.1116 10.7192 46.1119 11.418 46.0179 12.8158V18.1625H46.0222ZM46.9365 6.04989C47.0945 6.51725 47.2569 6.74878 47.415 6.74878C48.8334 6.28143 49.6836 6.04989 49.9613 6.04989V5.13233C49.2051 5.27811 48.1968 5.58254 46.9365 6.04989ZM52.9819 22.8361H52.2855V23.7537H53.439C53.5843 23.7537 54.1995 23.5993 55.289 23.2949V22.8361C55.289 22.5145 55.1352 22.3559 54.8318 22.3559C54.2636 22.6732 53.6484 22.8361 52.9819 22.8361ZM53.2041 5.12805V6.04561C53.7467 6.04561 54.6054 6.27714 55.7718 6.74449L55.9897 6.28571V5.82693L53.2041 5.12805ZM57.6174 21.1982L58.3138 21.657C59.4033 20.4736 59.9459 19.6203 59.9459 19.1015L59.4674 18.8614C59.2837 18.8614 58.6642 19.6418 57.6174 21.1982ZM58.3138 8.14227C58.7667 8.91405 59.3819 9.69441 60.1638 10.479H60.403L60.8602 10.2604C60.3945 9.26135 59.7024 8.40382 58.771 7.68349C58.4676 7.73923 58.3138 7.8893 58.3138 8.14227ZM60.403 13.2746V14.9125L60.1638 16.0702H61.0994V15.6071L61.3387 13.2703H60.403V13.2746Z" fill="#294E9E"/>
<path d="M80.432 1.39777C87.4173 1.39777 92.2921 4.81933 95.0521 11.6582C95.3682 12.8158 95.5306 13.9006 95.5306 14.9125C95.5306 19.6246 92.98 23.5821 87.8745 26.7893C91.506 28.826 93.5183 30.3009 93.9028 31.2185C94.2062 32.3761 94.36 33.075 94.36 33.3151C94.36 35.7377 92.8134 37.2083 89.7244 37.7271C87.0713 37.7271 82.9741 35.0902 77.4328 29.8207L76.9543 29.5806C77.1123 31.1241 77.1935 32.2904 77.1935 33.075C77.1935 36.9211 75.4888 39.0949 72.0837 39.6009C69.4733 39.6009 67.9267 38.0444 67.4482 34.9316C67.4482 34.1984 67.5251 33.4266 67.6874 32.6162C67.2218 27.7583 66.833 22.09 66.5125 15.6114C66.5125 8.57104 68.6017 4.30052 72.7759 2.79555C75.5572 1.86513 78.1121 1.39777 80.432 1.39777ZM70.2295 13.5147C70.0415 15.1097 69.892 16.0444 69.7724 16.3103H70.6867C70.6867 15.9115 70.8447 14.9811 71.1652 13.5147H70.2295ZM69.9903 19.5603L70.2295 20.7394V22.3559H71.1652V22.1372C71.1652 20.2764 71.0071 19.3416 70.6867 19.3416C70.3919 19.4874 70.1612 19.5603 69.9903 19.5603ZM70.4645 25.3873V25.6274C70.4645 26.0004 70.6183 26.8493 70.9216 28.1828H71.6181V27.9427C71.46 26.5749 71.3788 25.7217 71.3788 25.3873H70.4645ZM70.9216 10.0203V10.479C71.0797 10.479 71.3147 10.5605 71.6181 10.7192C71.6181 10.4919 72.1606 9.79302 73.2501 8.62249V8.38238C73.2501 8.07795 73.092 7.9236 72.7716 7.9236C72.4811 7.97934 71.8658 8.67394 70.9216 10.0203ZM71.3788 31.2185C71.3788 31.8316 71.5369 32.8349 71.8573 34.2327H72.7716C72.7716 33.9797 72.5409 32.9764 72.0752 31.2185H71.3788ZM75.7964 6.04989V6.98889C77.6507 6.68446 78.582 6.37146 78.582 6.04989V5.59111H78.3428C78.0651 5.58682 77.2149 5.74118 75.7964 6.04989ZM76.0357 18.4026C76.0357 18.87 77.2704 19.1015 79.7356 19.1015C82.534 19.1015 84.6232 18.0168 85.9989 15.8472V14.6681C85.9989 12.8072 84.4523 11.5681 81.3634 10.955H79.0392C77.1294 10.955 76.1297 11.6539 76.0357 13.0516V18.4026ZM78.582 24.4483V25.3873L81.3676 25.1471V24.2296H81.1284C79.7612 24.3797 78.911 24.4483 78.582 24.4483ZM81.8205 5.351V6.29L84.6061 6.74878V5.83122C82.91 5.50964 81.9829 5.351 81.8205 5.351ZM82.0598 27.4839V27.9427L84.3882 29.8207L84.6061 28.8817C83.5978 27.9513 82.7519 27.4839 82.0598 27.4839ZM84.3882 23.535V23.9938L84.6061 24.4525C86.251 23.8394 87.1781 23.535 87.3917 23.535V23.2949L86.9346 22.596C85.5033 23.2177 84.6531 23.535 84.3882 23.535ZM87.1738 30.5196V31.4371C87.5583 31.4371 88.3274 31.8316 89.4809 32.6162L89.9594 31.6772L87.1738 30.5196ZM87.3917 7.44338V8.38238C87.631 8.38238 88.1735 8.92691 89.0238 10.0203C89.6475 9.78016 89.9594 9.54862 89.9594 9.32138C88.5666 8.06938 87.7933 7.44338 87.631 7.44338H87.3917ZM90.4123 18.1625C90.4123 18.7628 90.0278 19.6203 89.2587 20.7394L89.9551 21.1982H90.173C90.7968 19.9591 91.1087 19.0286 91.1087 18.4026C90.9506 18.4026 90.7199 18.3212 90.4123 18.1625ZM90.6515 12.5757L90.8694 14.2136V15.3713H91.8051V15.1526L91.5658 12.357H91.1087L90.6515 12.5757Z" fill="#294E9E"/>
<path d="M117.644 2.09666H120.887C123.523 2.90703 124.843 4.22763 124.843 6.04989V7.44767C124.036 10.0974 122.716 11.418 120.887 11.418H118.341C110.915 11.418 107.203 12.0355 107.203 13.2746L106.506 15.8515H106.746C110.962 15.5342 113.821 15.3713 115.316 15.3713C117.901 15.3713 119.452 17.0006 119.969 20.2592C119.969 23.3721 117.721 24.9285 113.227 24.9285C111.727 24.9285 109.254 25.0828 105.806 25.3873C105.806 25.4816 106.036 27.1924 106.502 30.5196C114.274 29.4262 118.832 28.8817 120.187 28.8817C122.323 28.8817 123.716 30.511 124.365 33.7696C123.899 36.8739 121.891 38.4217 118.341 38.4217C114.35 38.8891 109.788 39.5108 104.656 40.2997C100.786 40.2997 98.3034 37.5042 97.2182 31.9174C96.7525 29.4262 96.5218 26.9394 96.5218 24.4525C96.5218 12.6486 98.9998 5.664 103.96 3.49444C106.558 2.56402 111.121 2.09666 117.644 2.09666ZM99.5424 27.4839V30.5196H100.478V30.2795L100.239 28.1828C100.397 27.8784 100.478 27.6426 100.478 27.4839H99.5424ZM100.239 24.4483L100.696 24.6884C100.854 24.6884 101.478 23.9895 102.567 22.5917C102.409 22.2873 102.328 22.0515 102.328 21.8928C100.935 22.7718 100.239 23.625 100.239 24.4483ZM100.696 33.5338C101.162 34.52 101.858 35.3775 102.785 36.1107C102.785 35.8577 102.943 35.5447 103.264 35.1717C103.106 35.1717 102.482 34.5543 101.392 33.3151H101.174L100.696 33.5338ZM101.871 15.1483C101.405 16.9063 101.174 17.9096 101.174 18.1625H102.089C102.089 17.7381 102.319 16.8034 102.785 15.367C102.439 15.3713 102.136 15.2984 101.871 15.1483ZM103.96 9.56149C103.178 10.9979 102.785 11.9283 102.785 12.357H103.721C103.721 11.9583 104.105 11.1779 104.874 10.0203L104.178 9.56149H103.96ZM105.114 20.7394C105.114 21.0438 105.344 21.1982 105.81 21.1982L107.899 20.9581V20.0405C107.668 20.0405 106.741 20.2721 105.114 20.7394ZM105.81 36.5652C105.81 36.9125 105.729 37.2255 105.571 37.5042L107.899 37.7229H108.596V37.2641C108.591 36.9597 107.664 36.7281 105.81 36.5652ZM106.964 7.68349V8.14227C107.335 8.14227 108.343 7.91074 109.984 7.44338C109.826 7.15182 109.745 6.916 109.745 6.74449H109.527C107.818 6.9846 106.964 7.2976 106.964 7.68349ZM110.92 19.8004V20.7394H113.923V19.8004H110.92ZM111.616 36.5652V37.024L111.834 37.5042C113.304 37.1869 114.235 37.024 114.62 37.024V36.1064C114.474 36.1064 113.475 36.2608 111.616 36.5652ZM112.77 6.28571C112.928 6.59014 113.009 6.82596 113.009 6.9846L115.316 6.74449H115.795V5.82693H115.555C113.697 5.86981 112.77 6.01988 112.77 6.28571ZM117.644 35.4075V36.3251C118.11 36.3251 119.037 35.9392 120.43 35.1674C120.272 34.7001 120.118 34.4685 119.973 34.4685L117.644 35.4075ZM119.037 5.58682L118.798 6.0456V6.52582L121.584 6.74449H121.823V5.82693H120.191L119.037 5.58682Z" fill="#294E9E"/>
<path d="M153.9 3.25434C157.002 3.97467 158.553 5.44962 158.553 7.6835V19.8004C158.553 28.5816 157.617 34.0912 155.75 36.3294C154.173 37.8858 152.708 38.6662 151.354 38.6662H149.961C146.898 38.6662 143.954 35.4075 141.13 28.886C138.464 24.5726 136.456 21.6999 135.101 20.2635V20.5036C135.101 21.314 135.025 22.6346 134.862 24.4568C134.862 25.2029 135.093 28.7745 135.559 35.176C135.559 37.1998 134.166 38.5161 131.384 39.1292H130.688C127.599 39.1292 126.053 36.1793 126.053 30.2881C125.894 30.2881 125.813 28.7359 125.813 25.6359V23.0591C125.813 14.5823 127.437 9.69441 130.684 8.38667C131.572 7.91932 132.581 7.60632 133.709 7.44768C136.81 7.44768 140.292 10.5562 144.15 16.7691C146.299 19.7361 147.923 22.2959 149.021 24.4525H149.26C149.26 22.7632 149.333 21.2154 149.478 19.8047C149.175 15.174 149.021 11.1351 149.021 7.68779C149.777 4.89223 151.17 3.49445 153.199 3.49445C153.374 3.49445 153.609 3.41298 153.9 3.25434ZM129.3 24.6884L129.082 25.846V27.724H129.996V25.1472C129.996 24.8427 129.842 24.6884 129.539 24.6884H129.3ZM129.3 30.7383L129.539 33.5338H130.474V33.3152C130.316 31.9302 130.235 31.0727 130.235 30.7383H129.3ZM129.774 18.8614L129.535 21.657H130.231C130.534 20.435 130.688 19.5003 130.688 18.8614H129.774ZM131.863 13.2746C131.081 14.5523 130.688 15.4099 130.688 15.8515H131.384C131.53 15.8515 131.995 15.0754 132.777 13.5147V13.2746H131.863ZM134.866 13.2746C135.687 14.6595 136.229 15.3584 136.499 15.3713C136.802 15.2255 137.037 15.1526 137.195 15.1526C136.268 13.8234 135.802 13.0431 135.802 12.8158H135.345C135.025 12.8673 134.866 13.0216 134.866 13.2746ZM138.348 17.7038V18.1625C139.25 19.5603 139.793 20.2592 139.981 20.2592C140.284 20.1134 140.519 20.0405 140.677 20.0405L139.045 17.4637C138.75 17.6266 138.519 17.7038 138.348 17.7038ZM141.826 22.596C141.946 23.0076 142.57 23.788 143.698 24.9328C143.988 24.7741 144.223 24.6927 144.394 24.6927C143.386 23.1362 142.762 22.3559 142.523 22.3559C142.232 22.5145 142.001 22.596 141.826 22.596ZM145.308 27.4839V27.724C146.235 29.0018 146.701 29.7735 146.701 30.0394H147.18C147.487 30.0394 147.637 29.885 147.637 29.5806C146.667 28.0242 146.124 27.2438 146.005 27.2438C145.714 27.4068 145.479 27.4839 145.308 27.4839ZM149.264 32.136C149.264 32.4576 149.106 32.6163 148.786 32.6163C148.786 33.388 149.482 34.0055 150.875 34.4728L151.114 34.014L149.264 32.136ZM153.204 7.92361C152.9 9.1756 152.746 9.95167 152.746 10.2604V10.9593H153.661V10.7192C153.661 10.4662 153.738 9.53577 153.9 7.92361H153.204ZM152.746 13.9735V17.0092H153.661V13.9735H152.746ZM153.204 20.0405L153.443 22.8361H154.357C154.357 22.0515 154.203 21.121 153.9 20.0405H153.204ZM153.443 31.9174L153.204 34.2327V34.4728H154.139V34.2327L154.357 31.9174H153.443ZM153.661 25.846C153.661 25.9404 153.588 26.9523 153.443 28.8817H154.357V25.846H153.661Z" fill="#294E9E"/>
<path d="M172.536 0C178.966 0 184.302 3.10856 188.545 9.32138C190.399 13.206 191.33 16.7004 191.33 19.8004C191.33 27.4368 187.536 33.3409 179.953 37.5042C177.167 38.5804 174.463 39.1206 171.84 39.1206C169.135 38.9749 167.431 38.739 166.73 38.4218C166.226 38.739 165.76 38.902 165.337 38.902H163.705C161.078 38.4346 159.766 36.4923 159.766 33.075C159.766 28.8688 159.689 22.7332 159.527 14.6724C159.527 4.89222 163.863 0 172.536 0ZM164.401 11.8768C164.256 12.2756 164.021 13.2875 163.705 14.9125H164.641C164.944 13.4375 165.098 12.5028 165.098 12.1169C164.94 12.1169 164.705 12.0355 164.401 11.8768ZM163.705 17.9439V20.9581H164.641V17.9439H163.705ZM163.705 23.9938V25.8503L163.944 27.0294H164.641V23.9981H163.705V23.9938ZM164.184 30.0394L164.401 32.8349H165.337L165.098 32.3761V30.0394H164.184ZM165.337 9.08127C165.495 9.08127 165.73 9.16274 166.034 9.32138C166.615 7.9236 167.161 7.22471 167.666 7.22471C167.349 6.83882 167.187 6.52582 167.187 6.28571C165.952 7.27188 165.337 8.2023 165.337 9.08127ZM169.054 15.6071C169.054 16.8462 169.127 21.3483 169.272 29.1218C170.105 29.4262 171.195 29.5806 172.536 29.5806C176.539 29.5806 179.479 27.4067 181.346 23.0548C181.649 21.9786 181.803 21.0439 181.803 20.2592V19.1015C181.803 14.6424 179.483 11.5381 174.843 9.78016C174.01 9.63438 173.314 9.56149 172.754 9.56149H172.058C170.199 9.56149 169.272 10.6463 169.272 12.8158C169.127 13.6133 169.054 14.5438 169.054 15.6071ZM169.276 33.7739V34.014C169.434 34.3056 169.516 34.5414 169.516 34.7129H172.301V34.2327C172.301 33.9283 172.147 33.7739 171.844 33.7739H169.276ZM169.973 5.12805L170.212 5.58683L172.54 5.34672H172.998V4.42916H172.54C170.827 4.42916 169.973 4.66498 169.973 5.12805ZM175.082 33.075V33.7739H175.779C176.082 33.7739 176.86 33.6196 178.107 33.3151C177.949 33.0364 177.868 32.7234 177.868 32.3761L175.082 33.075ZM176.236 4.89222L176.018 5.351V5.59111C176.099 5.59111 177.026 5.90411 178.804 6.53011C178.804 6.3586 178.876 6.12278 179.022 5.83122C177.958 5.20522 177.031 4.89222 176.236 4.89222ZM182.739 29.5806L180.649 31.4371C180.807 31.7416 180.889 31.9774 180.889 32.136C182.068 31.5786 182.918 30.8798 183.435 30.0394L182.739 29.5806ZM181.346 7.9236L181.107 8.38238C182.26 9.78016 182.884 10.479 182.978 10.479C183.281 10.479 183.435 10.3247 183.435 10.0203C182.786 8.62249 182.089 7.9236 181.346 7.9236ZM184.371 13.2746C185.14 14.711 185.524 15.5685 185.524 15.8515H185.763C186.067 15.8515 186.221 15.6928 186.221 15.3713C186.221 14.8396 185.836 13.9864 185.067 12.8158C184.601 12.9745 184.371 13.1288 184.371 13.2746ZM185.524 24.6884C185.366 25.6188 185.054 26.472 184.589 27.2438L185.524 27.724C186.148 25.8889 186.46 24.877 186.46 24.6884H185.524ZM185.981 18.8614L186.221 20.0405V20.4993L185.981 21.657C186.34 21.657 186.652 21.7385 186.917 21.8971L187.156 20.4993C186.998 19.6461 186.917 19.0287 186.917 18.6428H186.46L185.981 18.8614Z" fill="#294E9E"/>
<path d="M214.094 3.25434C219.443 3.25434 224.023 6.90743 227.825 14.2136C228.607 16.3574 229 18.4541 229 20.4993V21.4383C229 26.695 226.441 31.1928 221.323 34.9316C218.14 36.9554 214.739 37.9673 211.12 37.9673H209.488C202.592 37.9673 197.649 35.0216 194.65 29.1261C194.026 27.4368 193.637 25.5716 193.475 23.5393C193.475 17.1935 195.573 12.2241 199.768 8.63965C203.968 5.04658 208.745 3.25434 214.094 3.25434ZM198.35 19.1015L197.653 22.1329C198.012 22.1329 198.324 22.2058 198.589 22.3516C198.589 21.687 198.82 20.6837 199.286 19.3374C198.939 19.3417 198.628 19.2602 198.35 19.1015ZM197.893 25.3873C198.358 27.0895 198.82 27.9427 199.286 27.9427C199.337 27.6383 199.491 27.4839 199.743 27.4839C199.132 26.4335 198.828 25.5802 198.828 24.9285C198.205 25.0485 197.893 25.2029 197.893 25.3873ZM199.743 16.306V16.5461H200.439C200.623 16.5461 201.17 15.8472 202.071 14.4494C202.071 14.1321 201.917 13.9692 201.614 13.9692C201.217 14.1193 200.593 14.8953 199.743 16.306ZM200.918 30.5196C201.661 31.1027 202.507 31.643 203.464 32.136L203.921 31.2185C203.404 31.2185 202.635 30.7554 201.614 29.8207C201.388 29.8207 201.157 30.0522 200.918 30.5196ZM215.136 13.4118C212.086 12.3742 209.3 12.9187 206.784 15.0497C204.263 17.1807 203.007 19.9248 203.007 23.2949V23.9938C203.007 26.5749 205.096 28.1228 209.27 28.6459H211.359C216.926 27.9256 219.712 25.2929 219.712 20.7437C219.712 16.8934 218.187 14.4494 215.136 13.4118ZM203.703 11.6582C204.007 12.0312 204.16 12.3356 204.16 12.5757C205.049 11.8425 205.899 11.3066 206.707 10.9593C206.561 10.6548 206.489 10.419 206.489 10.2604C206.062 10.2604 205.134 10.7277 203.703 11.6582ZM206.707 32.3762L206.489 32.8349V33.3152C207.057 33.4609 207.988 33.5338 209.274 33.5338L209.492 33.075L206.707 32.3762ZM208.792 8.38239C209.031 9.00839 209.262 9.32138 209.488 9.32138C210.402 8.85403 211.18 8.6225 211.816 8.6225V7.6835L208.792 8.38239ZM212.274 33.075V33.5338L212.513 34.014L215.298 33.3152C215.14 33.0365 215.059 32.7235 215.059 32.3762C213.743 32.8392 212.816 33.075 212.274 33.075ZM217.623 9.56149L217.383 10.4791C217.541 10.4791 218.319 11.0236 219.712 12.1169L220.169 11.4181C218.669 10.1789 217.823 9.56149 217.623 9.56149ZM217.841 30.9784V31.4372C217.892 31.7587 218.054 31.9174 218.319 31.9174C219.686 31.0941 220.378 30.5496 220.408 30.2795V30.0394L220.169 29.5806C218.857 30.511 218.08 30.9784 217.841 30.9784ZM222.019 13.7505L221.562 14.4494C222.382 15.993 222.848 16.7648 222.955 16.7648C223.416 16.619 223.651 16.4646 223.651 16.306C222.826 14.6166 222.284 13.7677 222.019 13.7505ZM223.19 25.1472C223.19 25.3058 222.724 26.0861 221.797 27.4839L222.711 27.9427C223.638 26.2534 224.104 25.3229 224.104 25.1472H223.19ZM223.886 22.1372H224.8L225.04 19.8047C225.04 19.5003 224.886 19.3459 224.582 19.3459C224.266 19.3417 224.036 20.2721 223.886 22.1372Z" fill="#294E9E"/>
<path d="M105.959 66C100.175 66 95.8937 61.9224 95.8937 56.0098V55.9369C95.8937 50.4186 99.8115 45.8737 105.417 45.8737C111.851 45.8737 114.688 51.1776 114.688 55.1779C114.688 56.7644 113.573 57.8106 112.137 57.8106H101.32C101.858 60.2974 103.584 61.5966 106.028 61.5966C107.536 61.5966 108.796 61.1292 109.911 60.2974C110.309 60.0101 110.668 59.8644 111.24 59.8644C112.462 59.8644 113.359 60.8034 113.359 62.0296C113.359 62.75 113.035 63.2945 112.641 63.6547C110.954 65.0996 108.762 66 105.959 66ZM109.48 54.3847C109.155 51.9322 107.72 50.2729 105.417 50.2729C103.153 50.2729 101.679 51.8979 101.247 54.3847H109.48Z" fill="#FDC500"/>
<path d="M118.858 48.7593C118.858 47.2458 120.08 46.0152 121.588 46.0152C123.096 46.0152 124.318 47.2415 124.318 48.7593V48.9737C125.578 47.3487 127.193 45.8737 129.962 45.8737C134.093 45.8737 136.503 48.6135 136.503 53.0513V63.0415C136.503 64.5551 135.281 65.7813 133.773 65.7813C132.265 65.7813 131.038 64.5551 131.038 63.0415V54.7835C131.038 52.1851 129.817 50.8517 127.732 50.8517C125.647 50.8517 124.318 52.1851 124.318 54.7835V63.0415C124.318 64.5551 123.096 65.7813 121.588 65.7813C120.08 65.7813 118.858 64.5551 118.858 63.0415V48.7593Z" fill="#FDC500"/>
<path d="M151.093 56.0098V55.9369C151.093 50.4186 155.297 45.8737 161.193 45.8737C164.102 45.8737 166.153 46.6669 167.772 48.039C168.131 48.3263 168.635 48.978 168.635 49.9127C168.635 51.2847 167.52 52.3652 166.153 52.3652C165.435 52.3652 164.893 52.078 164.572 51.825C163.603 51.0661 162.594 50.5987 161.159 50.5987C158.429 50.5987 156.485 53.017 156.485 55.864V55.9369C156.485 58.8953 158.39 61.275 161.372 61.275C162.808 61.275 163.923 60.7691 164.965 59.9415C165.252 59.7272 165.79 59.4356 166.439 59.4356C167.734 59.4356 168.738 60.4818 168.738 61.7809C168.738 62.5013 168.413 63.0801 167.948 63.5132C166.328 64.9924 164.282 66 161.116 66C155.335 66 151.093 61.528 151.093 56.0098Z" fill="#FDC500"/>
<path d="M171.395 60.0101V59.9372C171.395 55.7182 174.595 53.7716 179.158 53.7716C181.098 53.7716 182.499 54.0975 183.866 54.5648V54.2389C183.866 51.9665 182.465 50.7059 179.735 50.7059C178.227 50.7059 177.001 50.9203 175.963 51.2462C175.638 51.3533 175.424 51.3919 175.172 51.3919C173.912 51.3919 172.908 50.4186 172.908 49.1581C172.908 48.1848 173.519 47.353 174.382 47.0314C176.108 46.3797 177.975 46.0195 180.53 46.0195C183.512 46.0195 185.669 46.8127 187.037 48.1848C188.472 49.6254 189.122 51.7564 189.122 54.3504V63.153C189.122 64.6322 187.938 65.7856 186.464 65.7856C184.883 65.7856 183.841 64.6665 183.841 63.5132V63.4746C182.512 64.9538 180.679 65.9271 178.018 65.9271C174.382 65.9271 171.395 63.8347 171.395 60.0101ZM183.939 58.7496V57.7763C183.003 57.3432 181.782 57.0559 180.453 57.0559C178.116 57.0559 176.68 57.9949 176.68 59.7272V59.8C176.68 61.2793 177.902 62.1454 179.662 62.1454C182.213 62.1411 183.939 60.7348 183.939 58.7496Z" fill="#FDC500"/>
<path d="M193.317 63.7275C192.74 63.3674 192.275 62.7157 192.275 61.8495C192.275 60.6233 193.21 59.6843 194.432 59.6843C194.829 59.6843 195.222 59.7915 195.509 59.9715C197.342 61.1249 199.174 61.7038 200.721 61.7038C202.302 61.7038 203.02 61.1249 203.02 60.2588V60.1859C203.02 58.994 201.148 58.5995 199.029 57.9478C196.333 57.1546 193.279 55.894 193.279 52.1423V52.0694C193.279 48.1376 196.44 45.938 200.324 45.938C202.336 45.938 204.421 46.4783 206.288 47.4173C207.078 47.816 207.582 48.5364 207.582 49.4753C207.582 50.7016 206.613 51.6406 205.391 51.6406C204.993 51.6406 204.746 51.5677 204.382 51.3876C202.836 50.6287 201.362 50.1614 200.213 50.1614C198.884 50.1614 198.2 50.7402 198.2 51.4948V51.5677C198.2 52.6482 200.033 53.1542 202.118 53.8745C204.814 54.7749 207.941 56.0741 207.941 59.6114V59.6843C207.941 63.9762 204.741 65.9228 200.571 65.9228C198.205 65.9271 195.654 65.2411 193.317 63.7275Z" fill="#FDC500"/>
<path d="M210.714 60.0101V59.9372C210.714 55.7182 213.914 53.7716 218.477 53.7716C220.417 53.7716 221.818 54.0975 223.185 54.5648V54.2389C223.185 51.9665 221.784 50.7059 219.054 50.7059C217.541 50.7059 216.32 50.9203 215.281 51.2462C214.957 51.3533 214.743 51.3919 214.491 51.3919C213.231 51.3919 212.227 50.4186 212.227 49.1581C212.227 48.1848 212.838 47.353 213.701 47.0314C215.427 46.3797 217.294 46.0195 219.844 46.0195C222.826 46.0195 224.984 46.8127 226.351 48.1848C227.787 49.6254 228.436 51.7564 228.436 54.3504V63.153C228.436 64.6322 227.253 65.7856 225.779 65.7856C224.198 65.7856 223.155 64.6665 223.155 63.5132V63.4746C221.827 64.9538 219.994 65.9271 217.332 65.9271C213.696 65.9271 210.714 63.8347 210.714 60.0101ZM223.258 58.7496V57.7763C222.322 57.3432 221.1 57.0559 219.772 57.0559C217.435 57.0559 215.999 57.9949 215.999 59.7272V59.8C215.999 61.2793 217.221 62.1454 218.981 62.1454C221.532 62.1411 223.258 60.7348 223.258 58.7496Z" fill="#FDC500"/>
<path d="M54.1867 60.3231C53.9688 60.3231 53.7552 60.2417 53.5886 60.0787L49.8075 56.3442C49.47 56.014 49.4657 55.4695 49.799 55.1351L53.5202 51.3405C53.8492 51.0018 54.3918 50.9975 54.725 51.3319L58.5061 55.0665C58.8436 55.3966 58.8479 55.9411 58.5146 56.2756L54.7934 60.0702C54.6268 60.2374 54.4089 60.3231 54.1867 60.3231ZM51.6104 55.7225L54.1782 58.2565L56.7031 55.6796L54.1354 53.1456L51.6104 55.7225Z" fill="#EF5035"/>
<path d="M81.4873 59.4828H74.5916C74.2626 59.4828 73.9636 59.2941 73.8226 58.994C73.6816 58.6938 73.7243 58.3422 73.9337 58.085L78.7102 52.228C78.9025 51.9879 79.2101 51.8721 79.5134 51.9279C79.8168 51.9793 80.0688 52.1894 80.1714 52.481L82.2947 58.338C82.3887 58.5995 82.3503 58.8911 82.1922 59.1226C82.0256 59.3498 81.765 59.4828 81.4873 59.4828ZM76.3903 57.772H80.2696L79.0776 54.4791L76.3903 57.772Z" fill="#2C519F"/>
<path d="M30.2784 60.2888C27.7577 60.2888 25.707 58.2308 25.707 55.701C25.707 53.1713 27.7577 51.1132 30.2784 51.1132C32.7991 51.1132 34.8499 53.1713 34.8499 55.701C34.8499 58.2308 32.7991 60.2888 30.2784 60.2888ZM30.2784 52.824C28.6976 52.824 27.4117 54.1146 27.4117 55.701C27.4117 57.2875 28.6976 58.5781 30.2784 58.5781C31.8592 58.5781 33.1452 57.2875 33.1452 55.701C33.1452 54.1146 31.8592 52.824 30.2784 52.824Z" fill="#7669DB"/>
<path d="M9.82223 59.6971H2.97359C2.50363 59.6971 2.11911 59.3155 2.11911 58.8396V51.9665C2.11911 51.4948 2.49935 51.1089 2.97359 51.1089H9.82223C10.2922 51.1089 10.6767 51.4905 10.6767 51.9665V58.8396C10.6767 59.3112 10.2922 59.6971 9.82223 59.6971ZM3.82807 57.9864H8.96775V52.824H3.82807V57.9864Z" fill="#5BC94F"/>
</svg>
